<svg width="80" height="80" viewBox="0 0 80 80" fill="none" xmlns="http://www.w3.org/2000/svg">
<g clip-path="url(#clip0_1_3790)">
<mask id="mask0_1_3790" style="mask-type:luminance" maskUnits="userSpaceOnUse" x="0" y="0" width="80" height="80">
<path d="M80 0L0 0L0 80H80V0Z" fill="white"/>
</mask>
<g mask="url(#mask0_1_3790)">
<g clip-path="url(#clip1_1_3790)">
<path d="M-17 0H97.2857V80H-17V0Z" fill="url(#paint0_linear_1_3790)"/>
<path d="M-7.28516 40.0001L40.1434 70.2858L87.572 40.0001L40.1434 9.71436L-7.28516 40.0001Z" fill="url(#paint1_linear_1_3790)"/>
<path d="M40.1445 60C51.1902 60 60.1445 51.0457 60.1445 40C60.1445 28.9543 51.1902 20 40.1445 20C29.0988 20 20.1445 28.9543 20.1445 40C20.1445 51.0457 29.0988 60 40.1445 60Z" fill="#302681"/>
<mask id="mask1_1_3790" style="mask-type:luminance" maskUnits="userSpaceOnUse" x="20" y="20" width="41" height="40">
<path d="M40.1445 60C51.1902 60 60.1445 51.0457 60.1445 40C60.1445 28.9543 51.1902 20 40.1445 20C29.0988 20 20.1445 28.9543 20.1445 40C20.1445 51.0457 29.0988 60 40.1445 60Z" fill="white"/>
</mask>
<g mask="url(#mask1_1_3790)">
<path d="M-19.8594 80.0001C-19.8594 67.1182 -14.742 54.7639 -5.63313 45.655C3.47578 36.546 15.8301 31.4287 28.7121 31.4287C41.594 31.4287 53.9483 36.546 63.0572 45.655C72.1661 54.7639 77.2835 67.1182 77.2835 80.0001H74.4263C74.4263 67.876 69.61 56.2483 61.0369 47.6753C52.4638 39.1022 40.8362 34.2859 28.7121 34.2859C16.5879 34.2859 4.96026 39.1022 -3.61283 47.6753C-12.1859 56.2483 -17.0022 67.876 -17.0022 80.0001H-19.8594Z" fill="white"/>
</g>
<path fill-rule="evenodd" clip-rule="evenodd" d="M23.0868 34.1538C23.3124 34.1261 23.5166 33.9999 23.6544 33.803C23.7922 33.6062 23.8523 33.3547 23.8215 33.104C23.7907 32.8533 23.6715 32.6239 23.4902 32.4662C23.3089 32.3085 23.0803 32.2355 22.8547 32.2632C22.629 32.2909 22.4249 32.4171 22.2871 32.6139C22.1493 32.8108 22.0892 33.0623 22.12 33.313C22.1508 33.5637 22.2699 33.7931 22.4512 33.9508C22.6325 34.1085 22.8612 34.1815 23.0868 34.1538ZM23.0437 33.8027C23.1762 33.7864 23.2956 33.7082 23.3756 33.5853C23.4556 33.4623 23.4897 33.3047 23.4704 33.1471C23.451 32.9896 23.3798 32.8449 23.2724 32.745C23.1651 32.645 23.0303 32.5981 22.8978 32.6143C22.7653 32.6306 22.6459 32.7088 22.5658 32.8317C22.4858 32.9547 22.4517 33.1123 22.4711 33.2698C22.4904 33.4274 22.5616 33.5721 22.669 33.672C22.7764 33.772 22.9112 33.8189 23.0437 33.8027Z" fill="#009440"/>
<path fill-rule="evenodd" clip-rule="evenodd" d="M24.6365 33.9826L24.9894 33.958L24.9401 33.2522L25.7001 33.1991C25.8585 33.188 26.006 33.1144 26.1101 32.9946C26.2143 32.8748 26.2666 32.7185 26.2555 32.5601C26.2445 32.4017 26.1709 32.2542 26.0511 32.1501C25.9313 32.0459 25.775 31.9936 25.6166 32.0047L24.5308 32.0806L24.6365 33.9826ZM24.9154 32.8993L25.6483 32.8481C25.7131 32.8435 25.7734 32.8135 25.816 32.7644C25.8586 32.7154 25.88 32.6515 25.8755 32.5867C25.871 32.5219 25.8409 32.4616 25.7919 32.4189C25.7429 32.3763 25.6789 32.3549 25.6141 32.3595L24.8812 32.4107L24.9154 32.8993Z" fill="#009440"/>
<path d="M26.2529 33.8698C26.234 33.5983 26.1922 33.0011 25.785 33.0296L25.2693 33.0657C25.8665 33.0239 25.9082 33.6211 25.9272 33.8925" fill="#009440"/>
<path fill-rule="evenodd" clip-rule="evenodd" d="M27.0489 33.8317L27.9467 33.816C28.0539 33.8142 28.1596 33.7912 28.258 33.7485C28.3563 33.7057 28.4452 33.644 28.5197 33.5669C28.5941 33.4898 28.6527 33.3988 28.692 33.299C28.7313 33.1993 28.7505 33.0928 28.7486 32.9856L28.7439 32.7135C28.742 32.6063 28.7191 32.5006 28.6763 32.4023C28.6336 32.304 28.5719 32.215 28.4948 32.1406C28.4176 32.0661 28.3266 32.0075 28.2269 31.9683C28.1271 31.929 28.0206 31.9097 27.9134 31.9116L27.0156 31.9272L27.0489 33.8317ZM27.3964 33.4719L27.9133 33.4628C28.0504 33.4604 28.1809 33.4037 28.2762 33.305C28.3714 33.2064 28.4236 33.074 28.4212 32.9369L28.4184 32.7736C28.416 32.6365 28.3592 32.506 28.2606 32.4108C28.1619 32.3155 28.0295 32.2633 27.8924 32.2657L27.3755 32.2748L27.3964 33.4719Z" fill="#009440"/>
<path d="M29.4687 33.8079L31.1819 33.8677L31.1943 33.5142L29.8074 33.4658L29.8245 32.9763L30.9122 33.0143L30.9236 32.6879L29.8358 32.6499L29.8491 32.2692L31.1545 32.3148L31.1668 31.9613L29.5352 31.9043L29.4687 33.8079Z" fill="#009440"/>
<path d="M31.8848 33.9107L32.2101 33.9392L32.3239 32.638L32.5896 33.9724L32.8877 33.9984L33.3811 32.7305L33.2672 34.0316L33.5925 34.0601L33.7585 32.1626L33.2842 32.1211L32.7908 33.389L32.5252 32.0547L32.0508 32.0132L31.8848 33.9107Z" fill="#009440"/>
<path d="M35.8347 34.3555L37.2426 34.5975L37.2979 34.2757L36.2118 34.089L36.2855 33.6599L37.1705 33.812L37.2258 33.4902L36.3408 33.3381L36.3915 33.0431L37.4441 33.224L37.4994 32.9022L36.125 32.666L35.8347 34.3555Z" fill="#009440"/>
<path fill-rule="evenodd" clip-rule="evenodd" d="M39.4489 35.0663L39.7913 35.1548L39.9685 34.4699L40.7061 34.6606C40.8598 34.7004 41.023 34.6775 41.1598 34.5969C41.2966 34.5163 41.3958 34.3847 41.4356 34.231C41.4753 34.0773 41.4524 33.914 41.3718 33.7772C41.2912 33.6404 41.1596 33.5413 41.0059 33.5015L39.9521 33.229L39.4489 35.0663ZM40.0571 34.1274L40.7683 34.3114C40.8312 34.3276 40.898 34.3182 40.954 34.2853C41.0099 34.2523 41.0505 34.1985 41.0668 34.1356C41.083 34.0727 41.0736 34.0059 41.0407 33.95C41.0077 33.894 40.9539 33.8534 40.891 33.8372L40.1797 33.6532L40.0571 34.1274Z" fill="#009440"/>
<path fill-rule="evenodd" clip-rule="evenodd" d="M41.7856 35.6897L42.123 35.796L42.3357 35.1213L43.0624 35.3504C43.2138 35.3981 43.378 35.3838 43.5188 35.3105C43.6596 35.2371 43.7656 35.1109 43.8133 34.9595C43.8611 34.8081 43.8467 34.6439 43.7734 34.503C43.7001 34.3622 43.5738 34.2563 43.4224 34.2085L42.3843 33.8812L41.7856 35.6897ZM42.4421 34.7839L43.1428 35.0048C43.2047 35.0244 43.2719 35.0185 43.3295 34.9885C43.3871 34.9585 43.4305 34.9069 43.45 34.8449C43.4695 34.783 43.4637 34.7158 43.4337 34.6582C43.4037 34.6006 43.352 34.5572 43.2901 34.5377L42.5894 34.3168L42.4421 34.7839Z" fill="#009440"/>
<path d="M43.3305 36.1765C43.4123 35.917 43.5923 35.3461 43.203 35.2233L42.71 35.0679C43.2809 35.2479 43.1009 35.8188 43.0191 36.0783" fill="#009440"/>
<path fill-rule="evenodd" clip-rule="evenodd" d="M44.8897 36.7347C45.1026 36.8143 45.342 36.7967 45.5551 36.6857C45.7682 36.5747 45.9376 36.3794 46.0261 36.1428C46.1146 35.9062 46.1148 35.6477 46.0268 35.4241C45.9388 35.2005 45.7697 35.0302 45.5568 34.9506C45.3438 34.871 45.1045 34.8886 44.8914 34.9996C44.6783 35.1106 44.5088 35.3059 44.4204 35.5425C44.3319 35.7791 44.3317 36.0376 44.4197 36.2612C44.5077 36.4848 44.6768 36.6551 44.8897 36.7347ZM45.0136 36.4034C45.1386 36.4501 45.2807 36.4359 45.4084 36.3638C45.5362 36.2917 45.6392 36.1676 45.6948 36.0189C45.7504 35.8702 45.754 35.709 45.7049 35.5708C45.6558 35.4326 45.5579 35.3287 45.4329 35.2819C45.3078 35.2352 45.1658 35.2494 45.0381 35.3215C44.9103 35.3936 44.8073 35.5176 44.7517 35.6663C44.6961 35.8151 44.6925 35.9763 44.7416 36.1145C44.7907 36.2527 44.8885 36.3566 45.0136 36.4034Z" fill="#009440"/>
<mask id="mask2_1_3790" style="mask-type:luminance" maskUnits="userSpaceOnUse" x="46" y="35" width="3" height="3">
<path d="M46.3459 37.2985L47.1055 35.5518L48.6776 36.2353L47.918 37.9821L46.3459 37.2985ZM47.642 36.4675L47.5118 36.7669L48.2978 37.1087L48.428 36.8093L47.642 36.4675Z" fill="white"/>
</mask>
<g mask="url(#mask2_1_3790)">
<path fill-rule="evenodd" clip-rule="evenodd" d="M47.132 37.6403C47.3405 37.731 47.5804 37.7259 47.799 37.6262C48.0177 37.5265 48.1971 37.3404 48.2978 37.1087C48.3985 36.8771 48.4123 36.6189 48.3361 36.391C48.2599 36.1631 48.1 35.9842 47.8915 35.8935C47.683 35.8029 47.4431 35.808 47.2245 35.9077C47.0058 36.0074 46.8264 36.1935 46.7257 36.4251C46.625 36.6568 46.6112 36.9149 46.6874 37.1428C46.7636 37.3707 46.9235 37.5497 47.132 37.6403ZM47.2731 37.3159C47.3955 37.3692 47.5381 37.3624 47.6694 37.2971C47.8007 37.2318 47.9101 37.1133 47.9734 36.9677C48.0367 36.8221 48.0488 36.6613 48.007 36.5207C47.9652 36.3801 47.8729 36.2712 47.7505 36.2179C47.628 36.1647 47.4855 36.1715 47.3541 36.2368C47.2228 36.3021 47.1134 36.4206 47.0501 36.5662C46.9868 36.7118 46.9747 36.8726 47.0165 37.0132C47.0583 37.1538 47.1506 37.2627 47.2731 37.3159Z" fill="#009440"/>
</g>
<path d="M47.6367 36.8213L48.298 37.1088L48.1895 37.3584L47.5282 37.0708L47.6367 36.8213Z" fill="#009440"/>
<path d="M48.0469 37.0005L48.2964 37.109L47.9167 37.9824L47.6671 37.8739L48.0469 37.0005Z" fill="#009440"/>
<path fill-rule="evenodd" clip-rule="evenodd" d="M48.5563 38.2803L48.8729 38.4382L49.1886 37.805L49.8705 38.145C50.0125 38.2158 50.177 38.2273 50.3275 38.1769C50.4781 38.1266 50.6025 38.0184 50.6733 37.8763C50.7442 37.7342 50.7557 37.5698 50.7053 37.4193C50.6549 37.2687 50.5468 37.1443 50.4047 37.0735L49.4306 36.5878L48.5563 38.2803ZM49.3464 37.4884L50.0039 37.8163C50.0621 37.8452 50.1293 37.8499 50.1909 37.8293C50.2525 37.8087 50.3034 37.7645 50.3324 37.7064C50.3614 37.6482 50.3661 37.581 50.3455 37.5194C50.3248 37.4578 50.2806 37.4069 50.2225 37.3779L49.565 37.0501L49.3464 37.4884Z" fill="#009440"/>
<path d="M50.0058 39.0026C50.1273 38.7591 50.3944 38.2234 50.0291 38.0412L49.5664 37.8105C50.1021 38.0777 49.835 38.6134 49.7136 38.8569" fill="#009440"/>
<path d="M50.7144 39.3756L52.2064 40.2197L52.3806 39.9119L51.1728 39.2285L51.414 38.8022L52.3613 39.3382L52.5221 39.054L51.5748 38.518L51.7624 38.1864L52.8991 38.8296L53.0733 38.5217L51.6523 37.7178L50.7144 39.3756Z" fill="#009440"/>
<path d="M53.4916 40.3081C53.3893 40.4687 53.493 40.6477 53.7225 40.7939C53.952 40.9402 54.1083 40.9349 54.1743 40.8317C54.3826 40.5047 53.1782 40.0278 53.5494 39.4577C53.8695 38.9679 54.4171 39.3491 54.6237 39.4806C54.8302 39.6122 55.1619 39.9526 54.9039 40.3448L54.554 40.1218C54.6636 39.9497 54.5432 39.7843 54.3596 39.6673C54.1817 39.554 54.0372 39.5023 53.9312 39.6686C53.7537 39.9346 54.9342 40.4366 54.5723 41.0046C54.3055 41.4235 53.8412 41.2406 53.5314 41.0432C53.2675 40.8751 52.8731 40.4787 53.1301 40.0778L53.4916 40.3081Z" fill="#009440"/>
<path d="M55.5356 41.6594C55.425 41.8145 55.5193 41.9987 55.7408 42.1567C55.9623 42.3147 56.1187 42.3176 56.19 42.2181C56.4152 41.9024 55.2373 41.3631 55.6379 40.8132C55.9832 40.3409 56.5101 40.7501 56.7095 40.8924C56.9088 41.0346 57.2222 41.3918 56.9441 41.77L56.6063 41.529C56.7248 41.3629 56.6132 41.1913 56.436 41.0649C56.2643 40.9425 56.1227 40.8833 56.0081 41.0439C55.8169 41.3002 56.9695 41.8633 56.5784 42.4116C56.29 42.8159 55.836 42.609 55.5369 42.3956C55.2822 42.2139 54.9091 41.7974 55.1867 41.4105L55.5356 41.6594Z" fill="#009440"/>
<path fill-rule="evenodd" clip-rule="evenodd" d="M57.4692 43.851C57.6471 43.9926 57.8802 44.0498 58.1172 44.01C58.3542 43.9703 58.5756 43.837 58.7329 43.6393C58.8901 43.4416 58.9702 43.1958 58.9556 42.956C58.941 42.7161 58.8328 42.5019 58.6549 42.3604C58.477 42.2189 58.2439 42.1617 58.007 42.2014C57.77 42.2411 57.5485 42.3744 57.3913 42.5721C57.234 42.7698 57.1539 43.0156 57.1685 43.2554C57.1831 43.4953 57.2913 43.7095 57.4692 43.851ZM57.6894 43.5742C57.7939 43.6573 57.9334 43.6877 58.0771 43.6586C58.2209 43.6295 58.3572 43.5433 58.456 43.4191C58.5549 43.2948 58.6081 43.1426 58.6042 42.996C58.6002 42.8494 58.5392 42.7203 58.4347 42.6372C58.3302 42.5541 58.1908 42.5237 58.047 42.5528C57.9032 42.5819 57.7669 42.6681 57.6681 42.7923C57.5693 42.9166 57.516 43.0688 57.52 43.2154C57.524 43.362 57.5849 43.4911 57.6894 43.5742Z" fill="#009440"/>
<path d="M23.8164 35.5513L23.5515 36.3665L23.9591 36.4989" fill="white"/>
<path d="M23.8164 35.5513L24.0813 36.3665L23.6737 36.4989" fill="white"/>
<path d="M24.6328 36.1431H23.7757V36.5716" fill="white"/>
<path d="M24.6328 36.1431L23.9394 36.6469L23.6875 36.3002" fill="white"/>
<path d="M23.0039 36.1431L23.6973 36.6469L23.9493 36.3002" fill="white"/>
<path d="M23.0039 36.1431H23.861V36.5716" fill="white"/>
<path d="M24.3203 37.1021L24.0554 36.2869L23.6478 36.4193" fill="white"/>
<path d="M24.3203 37.1021L23.6269 36.5982L23.8788 36.2515" fill="white"/>
<path d="M23.3125 37.1016L24.0059 36.5977L23.754 36.251" fill="white"/>
<path d="M23.3125 37.1016L23.5774 36.2864L23.985 36.4188" fill="white"/>
<path d="M25.5859 43.959L25.3211 44.7742L25.7287 44.9066" fill="white"/>
<path d="M25.5859 43.959L25.8508 44.7742L25.4432 44.9066" fill="white"/>
<path d="M26.3984 44.5513H25.5413V44.9798" fill="white"/>
<path d="M26.3984 44.5513L25.705 45.0551L25.4531 44.7084" fill="white"/>
<path d="M24.7656 44.5513L25.4591 45.0551L25.711 44.7084" fill="white"/>
<path d="M24.7656 44.5513H25.6228V44.9798" fill="white"/>
<path d="M26.0898 45.5093L25.825 44.6941L25.4174 44.8265" fill="white"/>
<path d="M26.0898 45.5093L25.3964 45.0055L25.6483 44.6587" fill="white"/>
<path d="M25.0781 45.5098L25.7716 45.0059L25.5197 44.6592" fill="white"/>
<path d="M25.0781 45.5098L25.343 44.6946L25.7506 44.827" fill="white"/>
<path d="M23.1328 45.8979L22.9121 46.5773L23.2517 46.6876" fill="white"/>
<path d="M23.1328 45.8979L23.3535 46.5773L23.0139 46.6876" fill="white"/>
<path d="M23.8125 46.3916H23.0982V46.7487" fill="white"/>
<path d="M23.8125 46.3916L23.2346 46.8114L23.0247 46.5225" fill="white"/>
<path d="M22.457 46.3916L23.0349 46.8114L23.2448 46.5225" fill="white"/>
<path d="M22.457 46.3916H23.1713V46.7487" fill="white"/>
<path d="M23.5508 47.1899L23.3301 46.5106L22.9904 46.621" fill="white"/>
<path d="M23.5508 47.1899L22.9729 46.7701L23.1828 46.4812" fill="white"/>
<path d="M22.7148 47.1904L23.2927 46.7706L23.0828 46.4816" fill="white"/>
<path d="M22.7148 47.1904L22.9356 46.5111L23.2752 46.6215" fill="white"/>
<path d="M27.5466 43.1836L27.4205 43.5718L27.6146 43.6348" fill="white"/>
<path d="M27.5466 43.1836L27.6728 43.5718L27.4787 43.6348" fill="white"/>
<path d="M27.9297 43.4658H27.5215V43.6699" fill="white"/>
<path d="M27.9297 43.4658L27.5995 43.7057L27.4795 43.5406" fill="white"/>
<path d="M27.1562 43.4658L27.4865 43.7057L27.6064 43.5406" fill="white"/>
<path d="M27.1562 43.4658H27.5644V43.6699" fill="white"/>
<path d="M27.7812 43.9219L27.6551 43.5337L27.461 43.5968" fill="white"/>
<path d="M27.7812 43.9219L27.451 43.682L27.571 43.5169" fill="white"/>
<path d="M27.3008 43.9224L27.631 43.6825L27.511 43.5173" fill="white"/>
<path d="M27.3008 43.9224L27.4269 43.5342L27.621 43.5972" fill="white"/>
<path d="M29.7461 46.0884L29.5254 46.7677L29.865 46.8781" fill="white"/>
<path d="M29.7461 46.0884L29.9668 46.7677L29.6272 46.8781" fill="white"/>
<path d="M30.4297 46.582H29.7154V46.9392" fill="white"/>
<path d="M30.4297 46.582L29.8518 47.0019L29.6419 46.7129" fill="white"/>
<path d="M29.0703 46.582L29.6482 47.0019L29.8581 46.7129" fill="white"/>
<path d="M29.0703 46.582H29.7846V46.9392" fill="white"/>
<path d="M30.168 47.3807L29.9472 46.7014L29.6076 46.8118" fill="white"/>
<path d="M30.168 47.3807L29.5901 46.9609L29.8 46.672" fill="white"/>
<path d="M29.3281 47.3809L29.906 46.961L29.6961 46.6721" fill="white"/>
<path d="M29.3281 47.3809L29.5489 46.7015L29.8885 46.8119" fill="white"/>
<path d="M29.1484 48.2174L28.9719 48.7609L29.2436 48.8492" fill="white"/>
<path d="M29.1484 48.2174L29.325 48.7609L29.0533 48.8492" fill="white"/>
<path d="M29.6914 48.6124H29.12V48.8981" fill="white"/>
<path d="M29.6914 48.6124L29.2291 48.9483L29.0612 48.7172" fill="white"/>
<path d="M28.6094 48.6129L29.0717 48.9488L29.2396 48.7176" fill="white"/>
<path d="M28.6094 48.6129H29.1808V48.8986" fill="white"/>
<path d="M29.4844 49.2516L29.3078 48.7081L29.0361 48.7964" fill="white"/>
<path d="M29.4844 49.2516L29.0221 48.9157L29.19 48.6846" fill="white"/>
<path d="M28.8125 49.2511L29.2748 48.9152L29.1069 48.6841" fill="white"/>
<path d="M28.8125 49.2511L28.9891 48.7076L29.2608 48.7959" fill="white"/>
<path d="M46.3516 32.939L46.0867 33.7542L46.4943 33.8866" fill="white"/>
<path d="M46.3516 32.939L46.6164 33.7542L46.2088 33.8866" fill="white"/>
<path d="M47.1641 33.5312H46.3069V33.9598" fill="white"/>
<path d="M47.1641 33.5312L46.4706 34.0351L46.2187 33.6883" fill="white"/>
<path d="M45.5352 33.5312L46.2286 34.0351L46.4805 33.6883" fill="white"/>
<path d="M45.5352 33.5312H46.3923V33.9598" fill="white"/>
<path d="M46.8477 34.4893L46.5828 33.6741L46.1752 33.8065" fill="white"/>
<path d="M46.8477 34.4893L46.1542 33.9854L46.4061 33.6387" fill="white"/>
<path d="M45.8438 34.4897L46.5372 33.9859L46.2853 33.6392" fill="white"/>
<path d="M45.8438 34.4897L46.1086 33.6746L46.5162 33.807" fill="white"/>
<path d="M54.1562 46.1631L53.8914 46.9783L54.299 47.1107" fill="white"/>
<path d="M54.1562 46.1631L54.4211 46.9783L54.0135 47.1107" fill="white"/>
<path d="M54.9727 46.7554H54.1155V47.1839" fill="white"/>
<path d="M54.9727 46.7554L54.2792 47.2592L54.0273 46.9125" fill="white"/>
<path d="M53.3398 46.7554L54.0333 47.2592L54.2852 46.9125" fill="white"/>
<path d="M53.3398 46.7554H54.197V47.1839" fill="white"/>
<path d="M54.6602 47.7139L54.3953 46.8987L53.9877 47.0311" fill="white"/>
<path d="M54.6602 47.7139L53.9667 47.2101L54.2186 46.8633" fill="white"/>
<path d="M53.6523 47.7144L54.3458 47.2105L54.0939 46.8638" fill="white"/>
<path d="M53.6523 47.7144L53.9172 46.8992L54.3248 47.0316" fill="white"/>
<path d="M56.9336 46.6396L56.757 47.1831L57.0287 47.2714" fill="white"/>
<path d="M56.9336 46.6396L57.1102 47.1831L56.8384 47.2714" fill="white"/>
<path d="M57.4727 47.0337H56.9012V47.3194" fill="white"/>
<path d="M57.4727 47.0337L57.0104 47.3696L56.8424 47.1384" fill="white"/>
<path d="M56.3906 47.0342L56.8529 47.3701L57.0209 47.1389" fill="white"/>
<path d="M56.3906 47.0342H56.9621V47.3199" fill="white"/>
<path d="M57.2656 47.6729L57.089 47.1294L56.8173 47.2177" fill="white"/>
<path d="M57.2656 47.6729L56.8033 47.337L56.9713 47.1058" fill="white"/>
<path d="M56.5938 47.6729L57.056 47.337L56.8881 47.1058" fill="white"/>
<path d="M56.5938 47.6729L56.7703 47.1294L57.0421 47.2177" fill="white"/>
<path d="M54.9727 48.0747L54.7519 48.754L55.0916 48.8644" fill="white"/>
<path d="M54.9727 48.0747L55.1934 48.754L54.8537 48.8644" fill="white"/>
<path d="M55.6562 48.5684H54.942V48.9255" fill="white"/>
<path d="M55.6562 48.5684L55.0784 48.9882L54.8685 48.6993" fill="white"/>
<path d="M54.293 48.5684L54.8708 48.9882L55.0808 48.6993" fill="white"/>
<path d="M54.293 48.5684H55.0073V48.9255" fill="white"/>
<path d="M55.3945 49.3667L55.1738 48.6874L54.8341 48.7977" fill="white"/>
<path d="M55.3945 49.3667L54.8167 48.9469L55.0266 48.6579" fill="white"/>
<path d="M54.5547 49.3667L55.1326 48.9469L54.9226 48.6579" fill="white"/>
<path d="M54.5547 49.3667L54.7754 48.6874L55.1151 48.7977" fill="white"/>
<path d="M50.1565 52.2653L49.9358 52.9446L50.2754 53.0549" fill="white"/>
<path d="M50.1565 52.2653L50.3772 52.9446L50.0376 53.0549" fill="white"/>
<path d="M50.8359 52.7593H50.1217V53.1164" fill="white"/>
<path d="M50.8359 52.7593L50.2581 53.1791L50.0481 52.8902" fill="white"/>
<path d="M49.4766 52.7588L50.0544 53.1786L50.2644 52.8897" fill="white"/>
<path d="M49.4766 52.7588H50.1908V53.1159" fill="white"/>
<path d="M50.5781 53.5576L50.3574 52.8783L50.0177 52.9887" fill="white"/>
<path d="M50.5781 53.5576L50.0003 53.1378L50.2102 52.8488" fill="white"/>
<path d="M49.7344 53.5576L50.3122 53.1378L50.1023 52.8488" fill="white"/>
<path d="M49.7344 53.5576L49.9551 52.8783L50.2948 52.9887" fill="white"/>
<path d="M50.1289 54.4219L49.9523 54.9653L50.2241 55.0536" fill="white"/>
<path d="M50.1289 54.4219L50.3055 54.9653L50.0338 55.0536" fill="white"/>
<path d="M50.6758 54.8169H50.1044V55.1026" fill="white"/>
<path d="M50.6758 54.8169L50.2135 55.1528L50.0455 54.9216" fill="white"/>
<path d="M49.5859 54.8164L50.0482 55.1523L50.2162 54.9211" fill="white"/>
<path d="M49.5859 54.8164H50.1574V55.1021" fill="white"/>
<path d="M50.4688 55.4556L50.2922 54.9121L50.0204 55.0004" fill="white"/>
<path d="M50.4688 55.4556L50.0065 55.1197L50.1744 54.8885" fill="white"/>
<path d="M49.7969 55.4556L50.2592 55.1197L50.0912 54.8885" fill="white"/>
<path d="M49.7969 55.4556L49.9735 54.9121L50.2452 55.0004" fill="white"/>
<path d="M52.1406 50.8301L51.964 51.3735L52.2358 51.4618" fill="white"/>
<path d="M52.1406 50.8301L52.3172 51.3735L52.0455 51.4618" fill="white"/>
<path d="M52.6875 51.2246H52.1161V51.5103" fill="white"/>
<path d="M52.6875 51.2246L52.2252 51.5605L52.0573 51.3293" fill="white"/>
<path d="M51.5977 51.2246L52.06 51.5605L52.2279 51.3293" fill="white"/>
<path d="M51.5977 51.2246H52.1691V51.5103" fill="white"/>
<path d="M52.4805 51.8638L52.3039 51.3203L52.0322 51.4086" fill="white"/>
<path d="M52.4805 51.8638L52.0182 51.5279L52.1861 51.2967" fill="white"/>
<path d="M51.8086 51.8638L52.2709 51.5279L52.103 51.2967" fill="white"/>
<path d="M51.8086 51.8638L51.9852 51.3203L52.2569 51.4086" fill="white"/>
<path d="M53.7461 49.6802L53.5254 50.3595L53.865 50.4699" fill="white"/>
<path d="M53.7461 49.6802L53.9668 50.3595L53.6272 50.4699" fill="white"/>
<path d="M54.4297 50.1743H53.7154V50.5315" fill="white"/>
<path d="M54.4297 50.1743L53.8518 50.5942L53.6419 50.3052" fill="white"/>
<path d="M53.0703 50.1738L53.6482 50.5937L53.8581 50.3047" fill="white"/>
<path d="M53.0703 50.1738H53.7846V50.531" fill="white"/>
<path d="M54.168 50.9725L53.9472 50.2932L53.6076 50.4036" fill="white"/>
<path d="M54.168 50.9725L53.5901 50.5527L53.8 50.2638" fill="white"/>
<path d="M53.3281 50.9727L53.906 50.5528L53.6961 50.2639" fill="white"/>
<path d="M53.3281 50.9727L53.5489 50.2933L53.8885 50.4037" fill="white"/>
<path d="M50.0742 50.4492L49.8976 50.9927L50.1694 51.081" fill="white"/>
<path d="M50.0742 50.4492L50.2508 50.9927L49.9791 51.081" fill="white"/>
<path d="M50.6211 50.8442H50.0497V51.13" fill="white"/>
<path d="M50.6211 50.8442L50.1588 51.1801L49.9909 50.949" fill="white"/>
<path d="M49.5312 50.8442L49.9935 51.1801L50.1615 50.949" fill="white"/>
<path d="M49.5312 50.8442H50.1027V51.13" fill="white"/>
<path d="M50.4141 51.4824L50.2375 50.939L49.9658 51.0273" fill="white"/>
<path d="M50.4141 51.4824L49.9518 51.1465L50.1197 50.9154" fill="white"/>
<path d="M49.7383 51.4824L50.2006 51.1465L50.0326 50.9154" fill="white"/>
<path d="M49.7383 51.4824L49.9149 50.939L50.1866 51.0273" fill="white"/>
<path d="M32.5234 40.1021L32.3027 40.7814L32.6424 40.8917" fill="white"/>
<path d="M32.5234 40.1021L32.7442 40.7814L32.4045 40.8917" fill="white"/>
<path d="M33.1992 40.5957H32.4849V40.9528" fill="white"/>
<path d="M33.1992 40.5957L32.6213 41.0155L32.4114 40.7266" fill="white"/>
<path d="M31.8477 40.5957L32.4255 41.0155L32.6354 40.7266" fill="white"/>
<path d="M31.8477 40.5957H32.5619V40.9528" fill="white"/>
<path d="M32.9453 41.394L32.7246 40.7147L32.3849 40.8251" fill="white"/>
<path d="M32.9453 41.394L32.3674 40.9742L32.5774 40.6853" fill="white"/>
<path d="M32.1055 41.394L32.6833 40.9742L32.4734 40.6853" fill="white"/>
<path d="M32.1055 41.394L32.3262 40.7147L32.6659 40.8251" fill="white"/>
<path d="M45.5859 38.4219L45.4094 38.9653L45.6811 39.0536" fill="white"/>
<path d="M45.5859 38.4219L45.7625 38.9653L45.4908 39.0536" fill="white"/>
<path d="M46.1289 38.8169H45.5575V39.1026" fill="white"/>
<path d="M46.1289 38.8169L45.6666 39.1528L45.4987 38.9216" fill="white"/>
<path d="M45.043 38.8164L45.5053 39.1523L45.6732 38.9211" fill="white"/>
<path d="M45.043 38.8164H45.6144V39.1021" fill="white"/>
<path d="M45.9219 39.4556L45.7453 38.9121L45.4736 39.0004" fill="white"/>
<path d="M45.9219 39.4556L45.4596 39.1197L45.6275 38.8885" fill="white"/>
<path d="M45.2539 39.4556L45.7162 39.1197L45.5483 38.8885" fill="white"/>
<path d="M45.2539 39.4556L45.4305 38.9121L45.7022 39.0004" fill="white"/>
<path d="M40.1406 48.1226L39.8758 48.9377L40.2833 49.0702" fill="white"/>
<path d="M40.1406 48.1226L40.4055 48.9377L39.9979 49.0702" fill="white"/>
<path d="M40.9609 48.7148H40.1038V49.1434" fill="white"/>
<path d="M40.9609 48.7148L40.2675 49.2187L40.0156 48.8719" fill="white"/>
<path d="M39.3281 48.7148L40.0216 49.2187L40.2735 48.8719" fill="white"/>
<path d="M39.3281 48.7148H40.1853V49.1434" fill="white"/>
<path d="M40.6484 49.6733L40.3836 48.8581L39.976 48.9906" fill="white"/>
<path d="M40.6484 49.6733L39.955 49.1695L40.2069 48.8228" fill="white"/>
<path d="M39.6406 49.6733L40.3341 49.1695L40.0822 48.8228" fill="white"/>
<path d="M39.6406 49.6733L39.9055 48.8581L40.3131 48.9906" fill="white"/>
<path d="M42.4531 44.2925L42.2324 44.9718L42.5721 45.0822" fill="white"/>
<path d="M42.4531 44.2925L42.6739 44.9718L42.3342 45.0822" fill="white"/>
<path d="M43.1367 44.7861H42.4224V45.1433" fill="white"/>
<path d="M43.1367 44.7861L42.5588 45.206L42.3489 44.917" fill="white"/>
<path d="M41.7734 44.7861L42.3513 45.206L42.5612 44.917" fill="white"/>
<path d="M41.7734 44.7861H42.4877V45.1433" fill="white"/>
<path d="M42.875 45.585L42.6543 44.9056L42.3146 45.016" fill="white"/>
<path d="M42.875 45.585L42.2971 45.1651L42.5071 44.8762" fill="white"/>
<path d="M42.0352 45.5845L42.613 45.1646L42.4031 44.8757" fill="white"/>
<path d="M42.0352 45.5845L42.2559 44.9051L42.5955 45.0155" fill="white"/>
<path d="M40.1406 42.4966L39.9199 43.1759L40.2596 43.2863" fill="white"/>
<path d="M40.1406 42.4966L40.3614 43.1759L40.0217 43.2863" fill="white"/>
<path d="M40.8242 42.9902H40.1099V43.3474" fill="white"/>
<path d="M40.8242 42.9902L40.2463 43.4101L40.0364 43.1211" fill="white"/>
<path d="M39.4648 42.9897L40.0427 43.4096L40.2526 43.1207" fill="white"/>
<path d="M39.4648 42.9897H40.1791V43.3469" fill="white"/>
<path d="M40.5623 43.7887L40.3415 43.1094L40.0019 43.2197" fill="white"/>
<path d="M40.5623 43.7887L39.9844 43.3688L40.1943 43.0799" fill="white"/>
<path d="M39.7227 43.7891L40.3005 43.3692L40.0906 43.0803" fill="white"/>
<path d="M39.7227 43.7891L39.9434 43.1097L40.283 43.2201" fill="white"/>
<path d="M38.1289 44.4355L37.9523 44.979L38.2241 45.0673" fill="white"/>
<path d="M38.1289 44.4355L38.3055 44.979L38.0338 45.0673" fill="white"/>
<path d="M38.6719 44.8296H38.1004V45.1153" fill="white"/>
<path d="M38.6719 44.8296L38.2096 45.1655L38.0416 44.9343" fill="white"/>
<path d="M37.5859 44.8301L38.0482 45.166L38.2162 44.9348" fill="white"/>
<path d="M37.5859 44.8301H38.1574V45.1158" fill="white"/>
<path d="M38.4648 45.4688L38.2883 44.9253L38.0165 45.0136" fill="white"/>
<path d="M38.4648 45.4688L38.0025 45.1329L38.1705 44.9017" fill="white"/>
<path d="M37.793 45.4692L38.2553 45.1334L38.0873 44.9022" fill="white"/>
<path d="M37.793 45.4692L37.9695 44.9258L38.2413 45.0141" fill="white"/>
<path d="M39.1326 45.9863L39.0064 46.3745L39.2005 46.4376" fill="white"/>
<path d="M39.1326 45.9863L39.2587 46.3745L39.0646 46.4376" fill="white"/>
<path d="M39.5234 46.2686H39.1153V46.4726" fill="white"/>
<path d="M39.5234 46.2686L39.1932 46.5085L39.0733 46.3434" fill="white"/>
<path d="M38.75 46.2686L39.0802 46.5085L39.2002 46.3434" fill="white"/>
<path d="M38.75 46.2686H39.1582V46.4726" fill="white"/>
<path d="M39.3789 46.7246L39.2528 46.3364L39.0587 46.3995" fill="white"/>
<path d="M39.3789 46.7246L39.0487 46.4847L39.1687 46.3196" fill="white"/>
<path d="M38.8945 46.7246L39.2247 46.4847L39.1048 46.3196" fill="white"/>
<path d="M38.8945 46.7246L39.0207 46.3364L39.2148 46.3995" fill="white"/>
<path d="M46.1289 52.7549L45.9082 53.4342L46.2478 53.5446" fill="white"/>
<path d="M46.1289 52.7549L46.3496 53.4342L46.01 53.5446" fill="white"/>
<path d="M46.8047 53.2485H46.0904V53.6057" fill="white"/>
<path d="M46.8047 53.2485L46.2268 53.6684L46.0169 53.3794" fill="white"/>
<path d="M45.4531 53.249L46.031 53.6689L46.2409 53.3799" fill="white"/>
<path d="M45.4531 53.249H46.1674V53.6062" fill="white"/>
<path d="M46.5508 54.0474L46.3301 53.368L45.9904 53.4784" fill="white"/>
<path d="M46.5508 54.0474L45.9729 53.6275L46.1828 53.3386" fill="white"/>
<path d="M45.7109 54.0474L46.2888 53.6275L46.0789 53.3386" fill="white"/>
<path d="M45.7109 54.0474L45.9317 53.368L46.2713 53.4784" fill="white"/>
<path d="M47.8438 51.1294L47.6672 51.6729L47.9389 51.7611" fill="white"/>
<path d="M47.8438 51.1294L48.0203 51.6729L47.7486 51.7611" fill="white"/>
<path d="M48.3867 51.5244H47.8153V51.8101" fill="white"/>
<path d="M48.3867 51.5244L47.9244 51.8603L47.7565 51.6291" fill="white"/>
<path d="M47.3008 51.5244L47.7631 51.8603L47.931 51.6291" fill="white"/>
<path d="M47.3008 51.5244H47.8722V51.8101" fill="white"/>
<path d="M48.1836 52.1626L48.007 51.6191L47.7353 51.7074" fill="white"/>
<path d="M48.1836 52.1626L47.7213 51.8267L47.8892 51.5956" fill="white"/>
<path d="M47.5078 52.1626L47.9701 51.8267L47.8022 51.5956" fill="white"/>
<path d="M47.5078 52.1626L47.6844 51.6191L47.9561 51.7074" fill="white"/>
<path d="M44.5508 50.6396L44.3742 51.1831L44.6459 51.2714" fill="white"/>
<path d="M44.5508 50.6396L44.7274 51.1831L44.4556 51.2714" fill="white"/>
<path d="M45.0938 51.0347H44.5223V51.3204" fill="white"/>
<path d="M45.0938 51.0347L44.6315 51.3705L44.4635 51.1394" fill="white"/>
<path d="M44.0078 51.0347L44.4701 51.3705L44.638 51.1394" fill="white"/>
<path d="M44.0078 51.0347H44.5792V51.3204" fill="white"/>
<path d="M44.8867 51.6729L44.7101 51.1294L44.4384 51.2177" fill="white"/>
<path d="M44.8867 51.6729L44.4244 51.337L44.5924 51.1058" fill="white"/>
<path d="M44.2188 51.6733L44.681 51.3375L44.5131 51.1063" fill="white"/>
<path d="M44.2188 51.6733L44.3953 51.1299L44.6671 51.2182" fill="white"/>
<path d="M32.1172 49.755L31.8523 50.5702L32.2599 50.7026" fill="white"/>
<path d="M32.1172 49.755L32.3821 50.5702L31.9745 50.7026" fill="white"/>
<path d="M32.9297 50.3473H32.0725V50.7759" fill="white"/>
<path d="M32.9297 50.3473L32.2362 50.8511L31.9843 50.5044" fill="white"/>
<path d="M31.3008 50.3478L31.9942 50.8516L32.2461 50.5049" fill="white"/>
<path d="M31.3008 50.3478H32.1579V50.7763" fill="white"/>
<path d="M32.6211 51.3058L32.3562 50.4906L31.9486 50.623" fill="white"/>
<path d="M32.6211 51.3058L31.9277 50.802L32.1796 50.4552" fill="white"/>
<path d="M31.6133 51.3063L32.3067 50.8025L32.0548 50.4557" fill="white"/>
<path d="M31.6133 51.3063L31.8782 50.4911L32.2857 50.6235" fill="white"/>
<path d="M40.1445 55.3604L40.0562 55.6321L40.1921 55.6762" fill="white"/>
<path d="M40.1445 55.3604L40.2328 55.6321L40.097 55.6762" fill="white"/>
<path d="M40.4141 55.5571H40.1283V55.7" fill="white"/>
<path d="M40.4141 55.5571L40.1829 55.7251L40.0989 55.6095" fill="white"/>
<path d="M39.875 55.5576L40.1061 55.7256L40.1901 55.61" fill="white"/>
<path d="M39.875 55.5576H40.1607V55.7005" fill="white"/>
<path d="M40.3086 55.8774L40.2203 55.6057L40.0844 55.6499" fill="white"/>
<path d="M40.3086 55.8774L40.0774 55.7095L40.1614 55.5939" fill="white"/>
<path d="M39.9766 55.877L40.2077 55.709L40.1237 55.5934" fill="white"/>
<path d="M39.9766 55.877L40.0649 55.6052L40.2007 55.6494" fill="white"/>
</g>
<g filter="url(#filter0_f_1_3790)">
<path d="M15 5C15 3.96447 15.8395 3.125 16.875 3.125L63.125 3.125C64.1605 3.125 65 3.96447 65 5C65 6.03554 64.1605 6.87501 63.125 6.87501L16.875 6.87501C15.8395 6.87501 15 6.03554 15 5Z" fill="#CDFFE3" fill-opacity="0.5"/>
</g>
<g filter="url(#filter1_f_1_3790)">
<path d="M75.4687 64.8451C74.9511 64.8451 74.5312 64.4254 74.5312 63.9076V15.7826C74.5312 15.2649 74.9511 14.8451 75.4687 14.8451C75.9863 14.8451 76.4061 15.2649 76.4061 15.7826V63.9076C76.4061 64.4254 75.9863 64.8451 75.4687 64.8451Z" fill="#CDFFE3" fill-opacity="0.5"/>
</g>
<g filter="url(#filter2_f_1_3790)">
<path d="M4.0625 64.8451C3.80362 64.8451 3.59375 64.6353 3.59375 64.3764L3.59375 15.3139C3.59375 15.055 3.80362 14.8451 4.0625 14.8451C4.32139 14.8451 4.53125 15.055 4.53125 15.3139L4.53125 64.3764C4.53125 64.6353 4.32139 64.8451 4.0625 64.8451Z" fill="#CDFFE3" fill-opacity="0.5"/>
</g>
<g filter="url(#filter3_f_1_3790)">
<path d="M4.0625 20.4701C3.80362 20.4701 3.59375 20.2603 3.59375 20.0014V15.3139C3.59375 15.055 3.80362 14.8451 4.0625 14.8451C4.32139 14.8451 4.53125 15.055 4.53125 15.3139V20.0014C4.53125 20.2603 4.32139 20.4701 4.0625 20.4701Z" fill="#CDFFE3" fill-opacity="0.5"/>
</g>
<g filter="url(#filter4_f_1_3790)">
<path d="M75.4687 20.4701C74.9511 20.4701 74.5312 20.0504 74.5312 19.5326V15.7826C74.5312 15.2649 74.9511 14.8451 75.4687 14.8451C75.9863 14.8451 76.4061 15.2649 76.4061 15.7826V19.5326C76.4061 20.0504 75.9863 20.4701 75.4687 20.4701Z" fill="#CDFFE3" fill-opacity="0.5"/>
</g>
</g>
</g>
<defs>
<filter id="filter0_f_1_3790" x="7.88889" y="-3.98611" width="64.2222" height="17.9722" filterUnits="userSpaceOnUse" color-interpolation-filters="sRGB">
<feFlood flood-opacity="0" result="BackgroundImageFix"/>
<feBlend mode="normal" in="SourceGraphic" in2="BackgroundImageFix" result="shape"/>
<feGaussianBlur stdDeviation="3.55556" result="effect1_foregroundBlur_1_3790"/>
</filter>
<filter id="filter1_f_1_3790" x="67.4201" y="7.73398" width="16.097" height="64.2222" filterUnits="userSpaceOnUse" color-interpolation-filters="sRGB">
<feFlood flood-opacity="0" result="BackgroundImageFix"/>
<feBlend mode="normal" in="SourceGraphic" in2="BackgroundImageFix" result="shape"/>
<feGaussianBlur stdDeviation="3.55556" result="effect1_foregroundBlur_1_3790"/>
</filter>
<filter id="filter2_f_1_3790" x="-2.62847" y="8.62287" width="13.3819" height="62.4444" filterUnits="userSpaceOnUse" color-interpolation-filters="sRGB">
<feFlood flood-opacity="0" result="BackgroundImageFix"/>
<feBlend mode="normal" in="SourceGraphic" in2="BackgroundImageFix" result="shape"/>
<feGaussianBlur stdDeviation="3.11111" result="effect1_foregroundBlur_1_3790"/>
</filter>
<filter id="filter3_f_1_3790" x="0.0381942" y="11.2895" width="8.04861" height="12.7361" filterUnits="userSpaceOnUse" color-interpolation-filters="sRGB">
<feFlood flood-opacity="0" result="BackgroundImageFix"/>
<feBlend mode="normal" in="SourceGraphic" in2="BackgroundImageFix" result="shape"/>
<feGaussianBlur stdDeviation="1.77778" result="effect1_foregroundBlur_1_3790"/>
</filter>
<filter id="filter4_f_1_3790" x="70.9757" y="11.2895" width="8.98587" height="12.7361" filterUnits="userSpaceOnUse" color-interpolation-filters="sRGB">
<feFlood flood-opacity="0" result="BackgroundImageFix"/>
<feBlend mode="normal" in="SourceGraphic" in2="BackgroundImageFix" result="shape"/>
<feGaussianBlur stdDeviation="1.77778" result="effect1_foregroundBlur_1_3790"/>
</filter>
<linearGradient id="paint0_linear_1_3790" x1="40.1429" y1="0" x2="40.1429" y2="80" gradientUnits="userSpaceOnUse">
<stop stop-color="#009440"/>
<stop offset="1" stop-color="#006A2D"/>
</linearGradient>
<linearGradient id="paint1_linear_1_3790" x1="40.1434" y1="9.71436" x2="40.1434" y2="70.2858" gradientUnits="userSpaceOnUse">
<stop stop-color="#FFCB00"/>
<stop offset="1" stop-color="#E1B300"/>
</linearGradient>
<clipPath id="clip0_1_3790">
<rect width="80" height="80" fill="white"/>
</clipPath>
<clipPath id="clip1_1_3790">
<rect width="80" height="80" rx="16" fill="white"/>
</clipPath>
</defs>
</svg>
