<svg width="80" height="80" viewBox="0 0 80 80" fill="none" xmlns="http://www.w3.org/2000/svg">
<g clip-path="url(#clip0_1_4743)">
<mask id="mask0_1_4743" style="mask-type:luminance" maskUnits="userSpaceOnUse" x="0" y="0" width="80" height="80">
<path d="M80 0L0 0L0 80H80V0Z" fill="white"/>
</mask>
<g mask="url(#mask0_1_4743)">
<g clip-path="url(#clip1_1_4743)">
<path d="M120 0H0V80H120V0Z" fill="url(#paint0_linear_1_4743)"/>
<path d="M22.2222 0V48.8889M0 22.2222H44.4444M44.4444 13.3333H120M44.4444 31.1111H120M0 48.8889H120M0 66.6667H120" stroke="url(#paint1_linear_1_4743)" stroke-width="8.88889"/>
</g>
<g filter="url(#filter0_f_1_4743)">
<path d="M15 5C15 3.96447 15.8395 3.125 16.875 3.125L63.125 3.125C64.1605 3.125 65 3.96447 65 5C65 6.03554 64.1605 6.87501 63.125 6.87501L16.875 6.87501C15.8395 6.87501 15 6.03554 15 5Z" fill="white" fill-opacity="0.7"/>
</g>
<g filter="url(#filter1_f_1_4743)">
<path d="M75.4687 64.8451C74.9511 64.8451 74.5312 64.4254 74.5312 63.9076V15.7826C74.5312 15.2649 74.9511 14.8451 75.4687 14.8451C75.9863 14.8451 76.4061 15.2649 76.4061 15.7826V63.9076C76.4061 64.4254 75.9863 64.8451 75.4687 64.8451Z" fill="white" fill-opacity="0.7"/>
</g>
<g filter="url(#filter2_f_1_4743)">
<path d="M4.0625 64.8451C3.80362 64.8451 3.59375 64.6353 3.59375 64.3764L3.59375 15.3139C3.59375 15.055 3.80362 14.8451 4.0625 14.8451C4.32139 14.8451 4.53125 15.055 4.53125 15.3139L4.53125 64.3764C4.53125 64.6353 4.32139 64.8451 4.0625 64.8451Z" fill="white" fill-opacity="0.7"/>
</g>
<g filter="url(#filter3_f_1_4743)">
<path d="M4.0625 20.4701C3.80362 20.4701 3.59375 20.2603 3.59375 20.0014V15.3139C3.59375 15.055 3.80362 14.8451 4.0625 14.8451C4.32139 14.8451 4.53125 15.055 4.53125 15.3139V20.0014C4.53125 20.2603 4.32139 20.4701 4.0625 20.4701Z" fill="white" fill-opacity="0.7"/>
</g>
<g filter="url(#filter4_f_1_4743)">
<path d="M75.4687 20.4701C74.9511 20.4701 74.5312 20.0504 74.5312 19.5326V15.7826C74.5312 15.2649 74.9511 14.8451 75.4687 14.8451C75.9863 14.8451 76.4061 15.2649 76.4061 15.7826V19.5326C76.4061 20.0504 75.9863 20.4701 75.4687 20.4701Z" fill="white" fill-opacity="0.7"/>
</g>
</g>
</g>
<defs>
<filter id="filter0_f_1_4743" x="7.88889" y="-3.98611" width="64.2222" height="17.9722" filterUnits="userSpaceOnUse" color-interpolation-filters="sRGB">
<feFlood flood-opacity="0" result="BackgroundImageFix"/>
<feBlend mode="normal" in="SourceGraphic" in2="BackgroundImageFix" result="shape"/>
<feGaussianBlur stdDeviation="3.55556" result="effect1_foregroundBlur_1_4743"/>
</filter>
<filter id="filter1_f_1_4743" x="67.4201" y="7.73398" width="16.097" height="64.2222" filterUnits="userSpaceOnUse" color-interpolation-filters="sRGB">
<feFlood flood-opacity="0" result="BackgroundImageFix"/>
<feBlend mode="normal" in="SourceGraphic" in2="BackgroundImageFix" result="shape"/>
<feGaussianBlur stdDeviation="3.55556" result="effect1_foregroundBlur_1_4743"/>
</filter>
<filter id="filter2_f_1_4743" x="-2.62847" y="8.62287" width="13.3819" height="62.4444" filterUnits="userSpaceOnUse" color-interpolation-filters="sRGB">
<feFlood flood-opacity="0" result="BackgroundImageFix"/>
<feBlend mode="normal" in="SourceGraphic" in2="BackgroundImageFix" result="shape"/>
<feGaussianBlur stdDeviation="3.11111" result="effect1_foregroundBlur_1_4743"/>
</filter>
<filter id="filter3_f_1_4743" x="0.0381942" y="11.2895" width="8.04861" height="12.7361" filterUnits="userSpaceOnUse" color-interpolation-filters="sRGB">
<feFlood flood-opacity="0" result="BackgroundImageFix"/>
<feBlend mode="normal" in="SourceGraphic" in2="BackgroundImageFix" result="shape"/>
<feGaussianBlur stdDeviation="1.77778" result="effect1_foregroundBlur_1_4743"/>
</filter>
<filter id="filter4_f_1_4743" x="70.9757" y="11.2895" width="8.98587" height="12.7361" filterUnits="userSpaceOnUse" color-interpolation-filters="sRGB">
<feFlood flood-opacity="0" result="BackgroundImageFix"/>
<feBlend mode="normal" in="SourceGraphic" in2="BackgroundImageFix" result="shape"/>
<feGaussianBlur stdDeviation="1.77778" result="effect1_foregroundBlur_1_4743"/>
</filter>
<linearGradient id="paint0_linear_1_4743" x1="60" y1="0" x2="60" y2="80" gradientUnits="userSpaceOnUse">
<stop stop-color="#0D5EAF"/>
<stop offset="1" stop-color="#05407B"/>
</linearGradient>
<linearGradient id="paint1_linear_1_4743" x1="60" y1="0" x2="60" y2="66.6667" gradientUnits="userSpaceOnUse">
<stop stop-color="white"/>
<stop offset="1" stop-color="#D4D4D4"/>
</linearGradient>
<clipPath id="clip0_1_4743">
<rect width="80" height="80" fill="white"/>
</clipPath>
<clipPath id="clip1_1_4743">
<rect width="80" height="80" rx="16" fill="white"/>
</clipPath>
</defs>
</svg>
