<svg width="150" height="30" viewBox="0 0 150 30" fill="none" xmlns="http://www.w3.org/2000/svg">
<path d="M71.8099 4.82969C70.5646 3.63771 68.9485 3.02849 66.9349 3.02849C64.9214 3.02849 63.3052 3.6642 62.0335 4.90915C60.7882 6.1541 60.1523 7.71691 60.1523 9.59757C60.1523 11.5842 60.7882 13.1735 62.0335 14.3919C63.3052 15.5839 64.9214 16.1931 66.9084 16.1931C68.869 16.1931 70.4852 15.5839 71.7569 14.339C72.3928 13.7297 72.8962 13.0146 73.2141 12.2199C73.532 11.4253 73.691 10.5511 73.691 9.59757C73.7175 7.61096 73.0817 6.02166 71.8099 4.82969ZM69.7434 12.5113C69.0545 13.253 68.1272 13.6238 66.9084 13.6238C65.8486 13.6238 64.8684 13.253 64.1265 12.4848C63.3847 11.6902 63.0668 10.7366 63.0668 9.59757C63.0668 8.43209 63.4377 7.45202 64.153 6.71035C64.8684 5.96868 65.7956 5.59785 66.9084 5.59785C67.9682 5.59785 68.8955 5.96868 69.6374 6.71035C70.3792 7.45202 70.7236 8.4056 70.7236 9.59757C70.7501 10.763 70.4322 11.7431 69.7434 12.5113Z" fill="#1D1D1B"/>
<path d="M82.1976 8.74921H78.5945V5.8355H82.7542C82.9658 5.8355 83.125 5.67657 83.125 5.46467V3.61049C83.125 3.39858 82.9658 3.23965 82.7542 3.23965H76.1831C75.9715 3.23965 75.8125 3.39858 75.8125 3.61049V15.6096C75.8125 15.8215 75.9715 15.9805 76.1831 15.9805H78.2237C78.4354 15.9805 78.5945 15.8215 78.5945 15.6096V11.3451H82.1976C82.41 11.3451 82.5684 11.1862 82.5684 10.9743V9.12004C82.5684 8.90814 82.3833 8.74921 82.1976 8.74921Z" fill="#1D1D1B"/>
<path d="M88.2586 5.8355V15.6361C88.2586 15.848 88.4178 16.0069 88.6295 16.0069H90.6701C90.8817 16.0069 91.0409 15.848 91.0409 15.6361V5.8355H94.5647C94.7764 5.8355 94.9355 5.67657 94.9355 5.46467V3.61049C94.9355 3.39858 94.7764 3.23965 94.5647 3.23965H84.7614C84.5498 3.23965 84.3906 3.39858 84.3906 3.61049V5.46467C84.3906 5.67657 84.5498 5.8355 84.7614 5.8355H88.2586Z" fill="#1D1D1B"/>
<path d="M99.8086 10.7366C100.444 11.0279 100.922 11.3458 101.266 11.6372C101.584 11.9286 101.769 12.2199 101.769 12.5378C101.769 12.8821 101.637 13.147 101.398 13.3589C101.16 13.5443 100.842 13.6503 100.444 13.6503C99.9152 13.6503 99.4111 13.5178 98.882 13.2795C98.5104 13.094 98.1929 12.8821 97.9279 12.6173C97.7687 12.4583 97.5304 12.4848 97.3979 12.6437L96.2589 14.0211C96.153 14.1536 96.153 14.3125 96.2322 14.4449C96.5497 14.9482 97.0538 15.3455 97.7421 15.6634C98.5637 16.0342 99.4378 16.2196 100.365 16.2196C101.637 16.2196 102.644 15.8753 103.465 15.1601C104.154 14.6303 104.604 13.8622 104.684 13.0146C104.763 12.1405 104.631 11.4253 104.313 10.816C104.048 10.3128 103.73 9.94192 103.359 9.67703C102.962 9.38566 102.538 9.14727 102.088 8.88239C101.61 8.64399 101.187 8.43209 100.789 8.27315C100.392 8.08774 100.048 7.87584 99.7561 7.61095C99.4911 7.34607 99.3319 7.02821 99.3319 6.65737C99.3319 6.33952 99.4644 6.07463 99.7028 5.88921C99.9677 5.7038 100.313 5.62434 100.709 5.62434C101.133 5.62434 101.478 5.67731 101.769 5.80975C101.955 5.88921 102.14 6.02166 102.353 6.18059C102.512 6.31303 102.75 6.28654 102.882 6.10112L103.942 4.61778C104.048 4.45885 104.022 4.24695 103.889 4.14099C103.041 3.39932 101.902 3.02849 100.444 3.02849C99.1995 3.02849 98.2195 3.37283 97.4771 4.08802C96.7355 4.8032 96.3647 5.65082 96.3647 6.65737C96.3647 7.10768 96.4172 7.53148 96.5497 7.92881C96.7089 8.32613 96.8946 8.67048 97.0797 8.90887C97.2921 9.17376 97.5571 9.43864 97.9012 9.67703C98.2454 9.91543 98.537 10.1273 98.802 10.2598C99.1203 10.4187 99.4378 10.5776 99.8086 10.7366Z" fill="#1D1D1B"/>
<path d="M112.263 15.7424L114.912 7.47807L117.589 15.7424C117.641 15.9013 117.774 15.9808 117.933 15.9808H120.079C120.238 15.9808 120.37 15.8749 120.424 15.7159L123.815 3.71674C123.868 3.47834 123.708 3.26643 123.47 3.26643H121.563C121.404 3.26643 121.244 3.37239 121.219 3.53132L119.02 11.6632L116.529 3.53132C116.476 3.37239 116.343 3.26643 116.184 3.26643H113.879C113.72 3.26643 113.588 3.37239 113.535 3.53132L111.124 11.6897L108.951 3.5578C108.899 3.39887 108.766 3.29292 108.607 3.29292H106.222C105.984 3.29292 105.798 3.53132 105.878 3.74323L109.428 15.7424C109.481 15.9013 109.614 16.0073 109.773 16.0073H111.919C112.078 15.9808 112.21 15.8749 112.263 15.7424Z" fill="#1D1D1B"/>
<path d="M126.246 15.9805H128.286C128.498 15.9805 128.657 15.8215 128.657 15.6096V3.61049C128.657 3.39858 128.498 3.23965 128.286 3.23965H126.246C126.034 3.23965 125.875 3.39858 125.875 3.61049V15.6096C125.902 15.8215 126.061 15.9805 126.246 15.9805Z" fill="#1D1D1B"/>
<path d="M134.696 10.7369C135.332 11.0282 135.809 11.3461 136.153 11.6375C136.471 11.9288 136.657 12.2202 136.657 12.5381C136.657 12.8824 136.524 13.1473 136.285 13.3592C136.047 13.5446 135.729 13.6506 135.332 13.6506C134.802 13.6506 134.299 13.5181 133.769 13.2797C133.398 13.0943 133.08 12.8824 132.815 12.6175C132.655 12.4586 132.417 12.4851 132.285 12.644L131.146 14.0214C131.04 14.1538 131.04 14.3128 131.119 14.4452C131.437 14.9485 131.94 15.3458 132.63 15.6636C133.45 16.0345 134.325 16.2199 135.252 16.2199C136.524 16.2199 137.531 15.8755 138.352 15.1604L138.485 15.0544C139.173 14.3922 139.597 13.4916 139.597 12.5646C139.597 11.9024 139.465 11.3196 139.2 10.8428C138.935 10.3395 138.617 9.96868 138.246 9.7038C137.848 9.41243 137.425 9.17403 136.974 8.90915C136.498 8.67076 136.073 8.45885 135.676 8.29992C135.279 8.11451 134.934 7.9026 134.643 7.63771C134.378 7.37283 134.219 7.05498 134.219 6.68414C134.219 6.36629 134.351 6.1014 134.589 5.91598C134.854 5.73057 135.199 5.6511 135.597 5.6511C136.02 5.6511 136.365 5.70408 136.657 5.83652C136.842 5.91598 137.028 6.04842 137.239 6.20735C137.398 6.3398 137.637 6.31331 137.769 6.12788L138.829 4.64454C138.935 4.48562 138.908 4.27371 138.776 4.16776C137.928 3.42609 136.789 3.05525 135.332 3.05525C134.086 3.05525 133.106 3.3996 132.365 4.11479C131.622 4.82997 131.251 5.67759 131.251 6.68414C131.251 7.13444 131.305 7.55825 131.437 7.95558C131.596 8.3529 131.781 8.69725 131.967 8.93564C132.179 9.20052 132.444 9.46541 132.788 9.7038C133.133 9.94219 133.424 10.1541 133.689 10.2865C134.007 10.419 134.325 10.5779 134.696 10.7369Z" fill="#1D1D1B"/>
<path d="M144.508 10.7369C145.144 11.0282 145.621 11.3461 145.965 11.6375C146.283 11.9288 146.468 12.2202 146.468 12.5381C146.468 12.8824 146.336 13.1473 146.098 13.3592C145.859 13.5446 145.542 13.6506 145.144 13.6506C144.614 13.6506 144.111 13.5181 143.581 13.2797C143.21 13.0943 142.892 12.8824 142.627 12.6175C142.468 12.4586 142.23 12.4851 142.097 12.644L140.958 14.0214C140.852 14.1538 140.852 14.3128 140.931 14.4452C141.25 14.9485 141.753 15.3458 142.441 15.6636C143.263 16.0345 144.137 16.2199 145.064 16.2199C146.336 16.2199 147.343 15.8755 148.164 15.1604L148.297 15.0544C148.986 14.3922 149.41 13.4916 149.41 12.5646C149.41 11.9024 149.277 11.3196 149.012 10.8428C148.747 10.3395 148.429 9.96868 148.058 9.7038C147.661 9.41243 147.237 9.17403 146.787 8.90915C146.31 8.67076 145.886 8.45885 145.489 8.29992C145.091 8.11451 144.747 7.9026 144.455 7.63771C144.19 7.37283 144.031 7.05498 144.031 6.68414C144.031 6.36629 144.164 6.1014 144.402 5.91598C144.667 5.73057 145.012 5.6511 145.409 5.6511C145.833 5.6511 146.178 5.70408 146.468 5.83652C146.654 5.91598 146.84 6.04842 147.052 6.20735C147.211 6.3398 147.449 6.31331 147.582 6.12788L148.642 4.64454C148.747 4.48562 148.721 4.27371 148.588 4.16776C147.741 3.42609 146.601 3.05525 145.144 3.05525C143.899 3.05525 142.919 3.3996 142.176 4.11479C141.435 4.82997 141.064 5.67759 141.064 6.68414C141.064 7.13444 141.117 7.55825 141.25 7.95558C141.408 8.3529 141.594 8.69725 141.78 8.93564C141.991 9.20052 142.256 9.46541 142.6 9.7038C142.945 9.94219 143.236 10.1541 143.501 10.2865C143.793 10.419 144.137 10.5779 144.508 10.7369Z" fill="#1D1D1B"/>
<path d="M53.5748 10.7362C54.2106 11.0276 54.6876 11.3455 55.032 11.6368C55.3499 11.9282 55.5354 12.2196 55.5354 12.5375C55.5354 12.8818 55.4029 13.1467 55.1645 13.3586C54.926 13.5441 54.6081 13.65 54.2106 13.65C53.6808 13.65 53.1774 13.5176 52.6475 13.2792C52.2765 13.0937 51.9587 12.8818 51.6937 12.6169C51.5347 12.458 51.2963 12.4845 51.1638 12.6434L50.0246 14.0208C49.9186 14.1533 49.9186 14.3122 49.9981 14.4447C50.316 14.9479 50.8193 15.3452 51.5082 15.6631C52.3295 16.0339 53.2039 16.2193 54.1311 16.2193C55.4029 16.2193 56.4097 15.875 57.231 15.1598L57.337 15.0539C58.0258 14.3917 58.4498 13.4911 58.4763 12.5375C58.4763 11.8752 58.3438 11.2925 58.0788 10.7892C57.8139 10.286 57.4959 9.91513 57.125 9.65026C56.7276 9.35889 56.3037 9.12049 55.8533 8.85561C55.3764 8.61722 54.9525 8.40531 54.5551 8.24638C54.1576 8.06096 53.8132 7.84906 53.5218 7.58417C53.2568 7.31929 53.0979 7.00143 53.0979 6.6306C53.0979 6.31274 53.2304 6.04785 53.4688 5.86244C53.7338 5.67702 54.0782 5.59756 54.4756 5.59756C54.8995 5.59756 55.244 5.65054 55.5354 5.78298C55.7208 5.86244 55.9063 5.99488 56.1182 6.15381C56.2772 6.28625 56.5157 6.25976 56.6481 6.07434L57.7079 4.591C57.8139 4.43207 57.7874 4.22017 57.6549 4.11422C56.8071 3.37254 55.6678 3.00171 54.2106 3.00171C52.9654 3.00171 51.9851 3.34606 51.2433 4.06124C50.5014 4.77642 50.1305 5.62405 50.1305 6.6306C50.1305 7.0809 50.1835 7.50471 50.316 7.90204C50.4749 8.29935 50.6604 8.64371 50.8458 8.8821C51.0578 9.14698 51.3227 9.41186 51.6672 9.65026C52.0116 9.88865 52.303 10.1006 52.568 10.233C52.8859 10.4184 53.2039 10.5773 53.5748 10.7362Z" fill="#1D1D1B"/>
<path d="M56.6905 21.5181H57.9093L56.3461 27.0807H55.1273L53.9616 23.5048L52.8224 27.0807H51.6036L49.9609 21.5181H51.3916L52.3189 25.0411L53.3522 21.5181H54.624L55.7367 25.0146L56.6905 21.5181Z" fill="#878787"/>
<path d="M60.0764 27.0807H58.8047V21.5181H60.0764V27.0807Z" fill="#878787"/>
<path d="M66.5516 21.5181V27.0807H65.5448L62.8954 23.7432V27.0807H61.7031V21.5181H62.7099L65.3593 24.8822V21.5181H66.5516Z" fill="#878787"/>
<path d="M72.911 21.5181V27.0807H71.9042L69.2547 23.7432V27.0807H68.0625V21.5181H69.0693L71.7188 24.8822V21.5181H72.911Z" fill="#878787"/>
<path d="M75.7952 27.0807H74.5234V21.5181H75.7952V27.0807Z" fill="#878787"/>
<path d="M82.2308 21.5181V27.0807H81.2242L78.5752 23.7432V27.0807H77.3828V21.5181H78.3894L81.0392 24.8822V21.5181H82.2308Z" fill="#878787"/>
<path d="M87.2345 25.095H86.0421V23.9031H88.4269V26.3929C88.1886 26.6313 87.8703 26.8167 87.4728 26.9757C87.0754 27.1081 86.7046 27.1876 86.3338 27.1876C85.4063 27.1876 84.6647 26.9227 84.1348 26.4194C83.6048 25.8897 83.3398 25.201 83.3398 24.3269C83.3398 23.5057 83.6048 22.817 84.1081 22.2872C84.6381 21.731 85.3005 21.4661 86.1487 21.4661C86.8903 21.4661 87.4995 21.6515 87.9761 22.0488L87.4462 23.0819C87.3403 22.9759 87.182 22.87 86.9695 22.7905C86.7579 22.711 86.5454 22.6581 86.3338 22.6581C85.8305 22.6581 85.4596 22.817 85.1414 23.1084C84.8505 23.3998 84.6914 23.8236 84.6914 24.3534C84.6914 24.8566 84.8505 25.2804 85.1414 25.5718C85.433 25.8897 85.8305 26.0221 86.3338 26.0221C86.4929 26.0221 86.652 25.9956 86.837 25.9426C87.0228 25.8897 87.1287 25.8102 87.2079 25.7572V25.095H87.2345Z" fill="#878787"/>
<path d="M95.1632 25.5713L95.6399 26.5248C95.4807 26.7103 95.2158 26.8692 94.8716 27.0016C94.5533 27.1076 94.1825 27.187 93.8117 27.187C92.9376 27.187 92.2485 26.9222 91.6919 26.3924C91.162 25.8626 90.8711 25.1474 90.8711 24.2998C90.8711 23.4521 91.1361 22.7635 91.6394 22.2337C92.1427 21.7039 92.8576 21.4126 93.785 21.4126C94.13 21.4126 94.4741 21.4656 94.7658 21.5715C95.0574 21.6775 95.3216 21.8099 95.4807 21.9953L94.9249 22.9489C94.5533 22.7105 94.1825 22.6045 93.785 22.6045C93.335 22.6045 92.9642 22.7635 92.6726 23.0548C92.381 23.3462 92.2219 23.77 92.2219 24.2998C92.2219 24.7766 92.381 25.2004 92.6993 25.5183C93.0168 25.8362 93.4142 25.9951 93.9175 25.9951C94.395 25.9951 94.7924 25.8362 95.1632 25.5713Z" fill="#878787"/>
<path d="M95.9805 24.3001C95.9805 23.4789 96.2454 22.7902 96.8013 22.2605C97.3579 21.7042 98.0736 21.4393 98.9477 21.4393C99.8218 21.4393 100.538 21.7042 101.067 22.234C101.623 22.7637 101.915 23.4525 101.915 24.3266C101.915 25.1742 101.623 25.8629 101.067 26.3927C100.511 26.9224 99.7952 27.2138 98.9477 27.2138C98.0736 27.2138 97.3845 26.9489 96.8279 26.4192C96.2454 25.8629 95.9805 25.1742 95.9805 24.3001ZM97.3312 24.3001C97.3312 24.7769 97.4904 25.1742 97.8086 25.4921C98.1261 25.8099 98.497 25.9689 98.9477 25.9689C99.451 25.9689 99.8485 25.8099 100.14 25.4921C100.431 25.1742 100.563 24.7504 100.563 24.2736C100.563 23.7703 100.405 23.373 100.113 23.0551C99.7952 22.7372 99.4244 22.5783 98.9744 22.5783C98.497 22.5783 98.1261 22.7372 97.8086 23.0551C97.4637 23.3995 97.3312 23.7968 97.3312 24.3001Z" fill="#878787"/>
<path d="M104.275 27.0807H103.004V21.5181H104.275L105.998 23.8756L107.614 21.5181H108.807V27.0807H107.534V23.5312L105.971 25.7033H105.786L104.25 23.5577V27.0807H104.275Z" fill="#878787"/>
<path d="M110.375 27.0551V21.5191C110.984 21.4926 111.567 21.4661 112.071 21.4661C112.68 21.4661 113.157 21.5985 113.475 21.8369C113.793 22.0753 113.951 22.4197 113.951 22.8435C113.951 23.3998 113.74 23.7971 113.316 24.0885V24.115C113.554 24.1944 113.74 24.3534 113.899 24.5653C114.058 24.7772 114.111 25.0421 114.111 25.3864C114.111 25.9426 113.926 26.3664 113.528 26.6578C113.131 26.9492 112.627 27.1081 111.991 27.1081C111.222 27.1081 110.693 27.1081 110.375 27.0551ZM112.044 22.6846C111.938 22.6846 111.806 22.6846 111.647 22.711V23.7176H112.071C112.468 23.7176 112.653 23.5322 112.653 23.1879C112.653 23.0289 112.601 22.923 112.468 22.817C112.362 22.711 112.203 22.6846 112.044 22.6846ZM112.123 24.8302H111.62V25.8632C111.727 25.8897 111.885 25.9162 112.044 25.9162C112.547 25.9162 112.786 25.7307 112.786 25.3334C112.812 24.9891 112.574 24.8302 112.123 24.8302Z" fill="#878787"/>
<path d="M116.697 27.0807H115.426V21.5181H116.697V27.0807Z" fill="#878787"/>
<path d="M123.164 21.5181V27.0807H122.158L119.508 23.7432V27.0807H118.316V21.5181H119.323L121.972 24.8822V21.5181H123.164Z" fill="#878787"/>
<path d="M125.229 27.0807H123.957L126.262 21.5181H127.401L129.707 27.0807H128.355L127.904 25.9152H125.705L125.229 27.0807ZM127.428 24.7233L126.818 23.1604L126.183 24.7233H127.428Z" fill="#878787"/>
<path d="M131.146 22.7101H129.477V21.5181H134.086V22.7101H132.417V27.0807H131.146V22.7101Z" fill="#878787"/>
<path d="M136.334 27.0807H135.062V21.5181H136.334V27.0807Z" fill="#878787"/>
<path d="M137.523 24.3001C137.523 23.4789 137.788 22.7902 138.345 22.2605C138.902 21.7042 139.617 21.4393 140.491 21.4393C141.366 21.4393 142.081 21.7042 142.61 22.234C143.167 22.7637 143.458 23.4525 143.458 24.3266C143.458 25.1742 143.167 25.8629 142.61 26.3927C142.054 26.9224 141.339 27.2138 140.491 27.2138C139.617 27.2138 138.927 26.9489 138.372 26.4192C137.788 25.8629 137.523 25.1742 137.523 24.3001ZM138.875 24.3001C138.875 24.7769 139.034 25.1742 139.352 25.4921C139.67 25.8099 140.041 25.9689 140.491 25.9689C140.994 25.9689 141.391 25.8099 141.683 25.4921C141.975 25.1742 142.107 24.7504 142.107 24.2736C142.107 23.7703 141.948 23.373 141.656 23.0551C141.339 22.7372 140.968 22.5783 140.517 22.5783C140.041 22.5783 139.67 22.7372 139.352 23.0551C139.034 23.3995 138.875 23.7968 138.875 24.3001Z" fill="#878787"/>
<path d="M149.423 21.5181V27.0807H148.416L145.767 23.7432V27.0807H144.574V21.5181H145.581L148.231 24.8822V21.5181H149.423Z" fill="#878787"/>
<path d="M19.1366 12.2463L12.0891 19.2922L7.79697 15.0011L12.0626 10.71L13.3343 11.9814C13.6523 12.2993 14.0762 12.4847 14.5266 12.4847C14.977 12.4847 15.4009 12.2993 15.7188 11.9814L17.547 10.1538C18.2093 9.49157 18.2093 8.43204 17.547 7.79632L13.2813 3.53172C12.9634 3.21386 12.5395 3.02844 12.0891 3.02844C11.6387 3.02844 11.2148 3.21386 10.8969 3.53172L0.59052 13.8356C-0.0718401 14.4979 -0.0718401 15.5574 0.59052 16.1931L10.8969 26.497C11.2148 26.8149 11.6387 27.0003 12.0891 27.0003C12.5395 27.0003 12.9634 26.8149 13.2813 26.497L22.104 17.6764L23.3227 16.458L19.1366 12.2463Z" fill="#FBBA00"/>
<path d="M40.5379 16.1931L30.2316 26.497C29.9136 26.8149 29.4897 27.0003 29.0393 27.0003C28.5889 27.0003 28.165 26.8149 27.8471 26.497L23.555 22.2059C22.8926 21.5437 22.8926 20.4842 23.555 19.8485L25.3831 18.0208C25.701 17.7029 26.1249 17.544 26.5753 17.544C27.0257 17.544 27.4497 17.7294 27.7676 18.0208L28.9598 19.2127L29.0393 19.2922L33.3314 15.0011L29.0393 10.71L22.6542 17.0937C22.6277 17.1202 22.6012 17.1467 22.5747 17.1732C22.0183 17.7029 21.3029 17.9678 20.5611 17.9678C19.7662 17.9678 19.0245 17.65 18.468 17.0937C17.9116 16.5375 17.5938 15.7958 17.5938 15.0011C17.5938 14.233 17.8586 13.5442 18.3886 12.988C18.415 12.9615 18.4415 12.935 18.468 12.9085L18.4945 12.882L18.521 12.8555L27.8471 3.53172C28.165 3.21386 28.5889 3.02844 29.0393 3.02844C29.4897 3.02844 29.9136 3.21386 30.2316 3.53172L40.5379 13.8356C41.1737 14.4714 41.1737 15.5309 40.5379 16.1931Z" fill="#E30613"/>
</svg>
