<svg width="24" height="24" viewBox="0 0 24 24" fill="none" xmlns="http://www.w3.org/2000/svg">
<path d="M5.05928 15.1715C5.05928 16.5665 3.93275 17.6939 2.53892 17.6939C1.14508 17.6939 0.0185547 16.5665 0.0185547 15.1715C0.0185547 13.7766 1.14508 12.6492 2.53892 12.6492H5.05928V15.1715ZM6.31946 15.1715C6.31946 13.7766 7.44598 12.6492 8.83982 12.6492C10.2337 12.6492 11.3602 13.7766 11.3602 15.1715V21.4775C11.3602 22.8724 10.2337 23.9998 8.83982 23.9998C7.44598 23.9998 6.31946 22.8724 6.31946 21.4775V15.1715Z" fill="#E01E5A"/>
<path d="M8.84036 5.04474C7.44652 5.04474 6.32 3.91731 6.32 2.52237C6.32 1.12742 7.44652 0 8.84036 0C10.2342 0 11.3607 1.12742 11.3607 2.52237V5.04474H8.84036ZM8.84036 6.32503C10.2342 6.32503 11.3607 7.45245 11.3607 8.8474C11.3607 10.2423 10.2342 11.3698 8.84036 11.3698H2.52036C1.12653 11.3698 0 10.2423 0 8.8474C0 7.45245 1.12653 6.32503 2.52036 6.32503H8.84036Z" fill="#36C5F0"/>
<path d="M18.9401 8.8474C18.9401 7.45245 20.0666 6.32503 21.4604 6.32503C22.8543 6.32503 23.9808 7.45245 23.9808 8.8474C23.9808 10.2423 22.8543 11.3698 21.4604 11.3698H18.9401V8.8474ZM17.6799 8.8474C17.6799 10.2423 16.5534 11.3698 15.1595 11.3698C13.7657 11.3698 12.6392 10.2423 12.6392 8.8474V2.52237C12.6392 1.12742 13.7657 0 15.1595 0C16.5534 0 17.6799 1.12742 17.6799 2.52237V8.8474Z" fill="#2EB67D"/>
<path d="M15.1595 18.9551C16.5534 18.9551 17.6799 20.0825 17.6799 21.4775C17.6799 22.8724 16.5534 23.9998 15.1595 23.9998C13.7657 23.9998 12.6392 22.8724 12.6392 21.4775V18.9551H15.1595ZM15.1595 17.6939C13.7657 17.6939 12.6392 16.5665 12.6392 15.1715C12.6392 13.7766 13.7657 12.6492 15.1595 12.6492H21.4795C22.8734 12.6492 23.9999 13.7766 23.9999 15.1715C23.9999 16.5665 22.8734 17.6939 21.4795 17.6939H15.1595Z" fill="#ECB22E"/>
</svg>
